<?xml version="1.0" encoding="utf-8"?>
<!-- Generator: Adobe Illustrator 18.1.0, SVG Export Plug-In . SVG Version: 6.00 Build 0)  -->
<svg version="1.1" id="Layer_1" xmlns="http://www.w3.org/2000/svg" xmlns:xlink="http://www.w3.org/1999/xlink" x="0px" y="0px"
	 width="82px" height="24px" viewBox="0 0 82 24" enable-background="new 0 0 82 24" xml:space="preserve">
<g>
	<path fill-rule="evenodd" clip-rule="evenodd" fill="#1D1D1B" d="M41,8.5c-1.8-2.6-4.5-3.3-8.3-2c0-0.4,0-0.8,0-1.1c0-1,0-2-0.1-3
		C32.5,1.5,31.9,1,31.1,1c-1,0-1.7,0.7-1.7,1.8c0,2.4,0,4.9,0,7.3c0,2,0,4,0,6c0,1,0.5,1.7,1.4,1.9c0.7,0.2,1.3-0.2,1.7-0.7
		c3.3,1.7,6.4,0.6,8.1-1.3C42.5,13.8,42.6,10.8,41,8.5 M35.7,14.9c-1.7,0-3-1.3-3-3c0-1.7,1.4-2.9,3.1-2.9c1.7,0,3,1.3,3,3
		C38.8,13.6,37.5,14.9,35.7,14.9"/>
	<path fill-rule="evenodd" clip-rule="evenodd" fill="#1D1D1B" d="M70.5,7.5c0-0.8-0.3-1.4-1.1-1.7c-0.8-0.3-1.5,0-2,0.7
		C64,4.7,60.9,6,59.2,8c-1.9,2.3-1.9,5.4,0,7.8c1.6,1.9,4.8,3.3,8.2,1.5c0.2,0.2,0.4,0.4,0.7,0.5c1.2,0.6,2.4-0.1,2.4-1.4
		C70.6,13.4,70.5,10.5,70.5,7.5 M64.2,14.9c-1.7,0-3.1-1.3-3.1-2.9c0-2,1.6-3,3-3c1.7,0,3,1.3,3,3C67.2,13.6,65.9,14.8,64.2,14.9"/>
	<path fill-rule="evenodd" clip-rule="evenodd" fill="#1D1D1B" d="M56.2,10.5c-0.7-3.2-3.8-5.2-7-4.7c-3.3,0.5-5.7,3.3-5.5,6.7
		c0.3,4,4.5,6.4,8.5,5.5c1-0.2,2.1-0.8,2.9-1.5c0.5-0.5,0.7-1.3,0.4-1.8c-0.3-0.4-0.6-0.6-1.1-0.6c-0.4,0-0.6,0.2-1,0.3
		c-0.5,0.2-1,0.5-1.5,0.6c-1.7,0.5-4.1-0.3-4.6-1.9H48c2.2,0,4.4,0,6.6,0c0.9,0,1.5-0.5,1.7-1.4C56.3,11.2,56.3,10.8,56.2,10.5
		 M47.4,10.5c0.3-1.1,1.3-2.1,2.8-2.1c1.3,0,2.5,0.9,2.6,2.1H47.4z"/>
	<path fill-rule="evenodd" clip-rule="evenodd" fill="#1D1D1B" d="M76,6.6c-0.1-0.1,0-0.1-0.1-0.1c-0.3-0.6-0.8-0.9-1.5-0.8
		c-0.7,0.1-1.3,0.4-1.4,1.2c-0.1,0.3-0.1,0.6-0.1,1c0,2.6,0,5.3,0,7.9c0,0.2,0,0.5,0,0.7c0,0.2,0.1,0.3,0.1,0.5
		c0.2,0.7,0.8,1.1,1.5,1.1c0.9,0,1.5-0.6,1.6-1.6c0-0.4,0.1-0.7,0.1-1.1c0-1.5,0-2.5,0-3.9c0-0.2,0-0.4,0.1-0.6
		c0.2-1.3,1.2-1.7,2.4-2c0.1,0,0.4-0.1,0.6-0.1c0.8,0,1.8-0.7,1.8-1.6c0-1-0.8-1.5-1.9-1.5c0,0-0.1,0-0.2,0c-0.7,0-1.5,0.2-2.2,0.5
		c-0.2,0.1-0.4,0.2-0.6,0.3C76.2,6.5,76,6.6,76,6.6"/>
	<path fill-rule="evenodd" clip-rule="evenodd" fill="#05DB5C" d="M13.4,7.5c0-1-0.6-1.6-1.4-1.8c-0.7-0.1-1.2,0.2-1.6,0.7
		C7.1,4.7,4.1,5.9,2.5,7.7c-1.8,2.2-1.9,5.2-0.3,7.4c1.4,1.9,4.4,3.5,8,1.8c0,0.3,0,0.7-0.1,0.9c-0.5,2.1-2.8,2.8-4.5,2
		c-0.5-0.2-1-0.6-1.5-0.9c-0.5-0.3-1-0.3-1.4,0C2.2,19.2,2,19.7,2,20.2c0.1,0.6,0.4,0.9,0.8,1.3c2,1.5,4.5,1.9,6.9,1
		c2.5-1,3.6-3.1,3.7-5.6C13.6,13.8,13.5,10.5,13.4,7.5 M7.3,14.5c-1.7,0-3-1.2-3-2.8c0-1.6,1.2-2.9,2.9-2.9c1.7,0,3,1.2,3,2.9
		C10.2,13.2,8.9,14.5,7.3,14.5"/>
	<path fill-rule="evenodd" clip-rule="evenodd" fill="#05DB5C" d="M21.4,5.7c-3.5,0-6.3,2.8-6.3,6.1c0,3.4,2.8,6.2,6.3,6.2
		c3.4,0,6.2-2.8,6.2-6.2C27.7,8.5,24.8,5.7,21.4,5.7 M21.4,14.8c-1.7,0-3-1.3-3-3c0-1.5,1.4-2.8,3-2.8c1.7,0,3,1.3,2.9,2.9
		C24.3,13.5,23,14.8,21.4,14.8"/>
</g>
</svg>
